HIERARCHY
ROOT Hips
{
 OFFSET 0.000000 0.000000 0.000000
 CHANNELS 6 Xposition Yposition Zposition Yrotation Xrotation Zrotation
 JOINT Chest
 {
  OFFSET 0.000000 9.585900 0.002600
  CHANNELS 3 Yrotation Xrotation Zrotation
  JOINT Chest2
  {
   OFFSET 0.000000 9.601200 -0.005300
   CHANNELS 3 Yrotation Xrotation Zrotation
   JOINT Chest3
   {
    OFFSET 0.000000 9.561800 0.000000
    CHANNELS 3 Yrotation Xrotation Zrotation
    JOINT Chest4
    {
     OFFSET 0.000000 9.552100 0.000000
     CHANNELS 3 Yrotation Xrotation Zrotation
     JOINT Neck
     {
      OFFSET 0.000000 14.453000 0.000000
      CHANNELS 3 Yrotation Xrotation Zrotation
      JOINT Head
      {
       OFFSET 0.000000 8.936500 -0.011300
       CHANNELS 3 Yrotation Xrotation Zrotation
       End Site
       {
        OFFSET 0.000000 17.073600 -0.006000
       }
      }
     }
     JOINT RightCollar
     {
      OFFSET -2.921100 9.558500 0.000000
      CHANNELS 3 Yrotation Xrotation Zrotation
      JOINT RightShoulder
      {
       OFFSET -13.519700 0.000000 0.000000
       CHANNELS 3 Yrotation Xrotation Zrotation
       JOINT RightElbow
       {
        OFFSET 0.000000 -29.696600 0.000000
        CHANNELS 3 Yrotation Xrotation Zrotation
        JOINT RightWrist
        {
         OFFSET 0.000000 -24.004700 0.000000
         CHANNELS 3 Yrotation Xrotation Zrotation
         End Site
         {
          OFFSET 0.000000 -17.728500 0.000000
         }
        }
       }
      }
     }
     JOINT LeftCollar
     {
      OFFSET 2.921100 9.558500 0.000000
      CHANNELS 3 Yrotation Xrotation Zrotation
      JOINT LeftShoulder
      {
       OFFSET 13.519700 0.000000 0.000000
       CHANNELS 3 Yrotation Xrotation Zrotation
       JOINT LeftElbow
       {
        OFFSET 0.000000 -29.696600 0.000000
        CHANNELS 3 Yrotation Xrotation Zrotation
        JOINT LeftWrist
        {
         OFFSET 0.000000 -24.004700 0.000000
         CHANNELS 3 Yrotation Xrotation Zrotation
         End Site
         {
          OFFSET 0.000000 -17.728500 0.000000
         }
        }
       }
      }
     }
    }
   }
  }
 }
 JOINT RightHip
 {
  OFFSET -7.771700 -0.012900 -0.001300
  CHANNELS 3 Yrotation Xrotation Zrotation
  JOINT RightKnee
  {
   OFFSET 0.000000 -40.869800 0.001200
   CHANNELS 3 Yrotation Xrotation Zrotation
   JOINT RightAnkle
   {
    OFFSET 0.000000 -39.717900 0.002100
    CHANNELS 3 Yrotation Xrotation Zrotation
    JOINT RightToe
    {
     OFFSET 0.000000 -4.965400 11.033500
     CHANNELS 3 Yrotation Xrotation Zrotation
     End Site
     {
      OFFSET 0.000000 -1.423100 5.872300
     }
    }
   }
  }
 }
 JOINT LeftHip
 {
  OFFSET 7.771700 -0.012900 -0.001300
  CHANNELS 3 Yrotation Xrotation Zrotation
  JOINT LeftKnee
  {
   OFFSET 0.000000 -40.869800 0.001200
   CHANNELS 3 Yrotation Xrotation Zrotation
   JOINT LeftAnkle
   {
    OFFSET 0.000000 -39.717900 0.002100
    CHANNELS 3 Yrotation Xrotation Zrotation
    JOINT LeftToe
    {
     OFFSET 0.000000 -4.965400 11.033500
     CHANNELS 3 Yrotation Xrotation Zrotation
     End Site
     {
      OFFSET 0.000000 -1.423100 5.872300
     }
    }
   }
  }
 }
}
MOTION
Frames: 9
Frame Time: 0.008333
0.000000 85.388000 0.000000 0.000000 -5.767877 0.000000 0.000000 11.653817 0.000000 0.000000 -5.885947 0.000000 0.000000 -0.000000 0.000000 0.000000 -0.000000 0.000000 0.000000 12.528835 0.000000 0.000000 0.711642 0.000000 0.000000 -0.000000 0.000000 0.000000 0.000000 -90.000000 0.000000 -2.309062 0.000000 0.000000 2.309062 0.000000 0.000000 -0.000000 0.000000 0.000000 -0.000000 90.000000 0.000000 -2.309062 0.000000 0.000000 2.309062 0.000000 0.000000 8.520406 0.000000 0.000000 1.905762 0.000000 -0.000000 -4.658285 0.000000 0.000000 -0.000000 0.000000 0.000000 8.520406 0.000000 0.000000 1.905762 0.000000 -0.000000 -4.658285 0.000000 0.000000 -0.000000 0.000000
-161.541139 55.665631 107.459089 -173.367402 -27.942485 -10.844806 -0.369811 13.377073 6.011614 -0.488542 7.724172 2.065828 -0.563789 9.655674 2.577516 -0.464411 7.747212 2.084214 -9.839503 25.593303 -0.727738 -10.827984 2.695085 1.434134 2.991234 2.383822 -3.957489 -17.168394 -20.598675 0.735800 174.086880 -51.553405 -151.787560 13.706193 -9.252993 -31.171148 -9.507715 3.823210 -2.702160 2.148768 -2.493928 -1.312024 -117.684164 -67.601314 119.629374 9.643498 -9.557886 -12.386454 -20.830885 -35.185429 8.961902 47.115728 86.063678 42.896220 -1.412515 -20.902982 0.013340 -0.781952 2.283518 -0.301364 -15.427838 -49.398297 11.927075 179.305133 80.553666 174.422862 -1.866703 -17.776852 3.253003 -0.114867 -0.574611 -0.042129
-161.548116 55.657940 107.453548 -173.333281 -27.902220 -10.815274 -0.369126 13.380204 6.013948 -0.483723 7.740443 2.082471 -0.600002 9.620249 2.552820 -0.476606 7.734911 2.076548 -9.839576 25.765334 -0.693470 -10.872312 2.847120 1.451876 2.985203 2.516970 -3.900515 -17.078677 -20.623876 0.739716 174.156875 -51.591382 -151.766201 13.700592 -9.289342 -31.179584 -9.473601 3.911350 -2.662598 2.120200 -2.500558 -1.364207 -117.558239 -67.645573 119.491864 9.591729 -9.640388 -12.323837 -20.833619 -35.251572 8.941680 47.447690 86.104324 43.229666 -1.473452 -20.925620 0.015146 -0.747391 2.273402 -0.283139 -15.433985 -49.453278 11.884021 179.498182 80.547641 174.593768 -1.865375 -17.753210 3.274313 -0.110063 -0.579086 -0.042773
-161.553961 55.649881 107.446531 -173.298182 -27.862569 -10.793404 -0.392482 13.365861 5.999461 -0.470999 7.767087 2.106731 -0.598419 9.627891 2.560720 -0.468868 7.789388 2.115712 -9.902127 25.823373 -0.709754 -10.908347 2.991562 1.465238 2.936172 2.544443 -3.909993 -17.004362 -20.637349 0.751049 174.190999 -51.624833 -151.717310 13.708132 -9.301187 -31.144264 -9.491213 3.881178 -2.670939 2.097616 -2.522802 -1.408071 -117.518425 -67.641966 119.406956 9.561990 -9.666596 -12.215367 -20.841377 -35.312943 8.925777 47.816055 86.143261 43.598196 -1.504628 -20.955279 0.008122 -0.733680 2.268890 -0.265481 -15.456808 -49.500739 11.853818 179.632740 80.539877 174.700811 -1.857632 -17.749649 3.292701 -0.107540 -0.578593 -0.043149
-161.560318 55.642834 107.436191 -173.244433 -27.838257 -10.779229 -0.401051 13.394966 6.017802 -0.506578 7.741011 2.081674 -0.589189 9.661668 2.585228 -0.477169 7.809446 2.130699 -9.932796 25.913710 -0.713123 -10.938821 3.131052 1.474286 2.912055 2.600909 -3.897322 -16.940910 -20.639539 0.770640 174.196428 -51.653203 -151.645305 13.719922 -9.283863 -31.070818 -9.487857 3.878805 -2.669496 2.075054 -2.582090 -1.447371 -117.445648 -67.643479 119.290442 9.537389 -9.674834 -12.103250 -20.859238 -35.351739 8.895868 48.319021 86.173550 44.090904 -1.492589 -20.997768 -0.010674 -0.722544 2.267242 -0.255106 -15.484392 -49.531290 11.810049 179.681843 80.529002 174.725965 -1.856652 -17.744292 3.307343 -0.113613 -0.576901 -0.043392
-161.565411 55.636269 107.425208 -173.187788 -27.817677 -10.774553 -0.409852 13.424062 6.041049 -0.518841 7.749082 2.087903 -0.610797 9.662511 2.584984 -0.486092 7.811047 2.132578 -9.953448 26.018503 -0.709636 -10.967118 3.265869 1.481842 2.891564 2.672457 -3.874554 -16.889557 -20.630319 0.799073 174.182520 -51.678757 -151.559188 13.727027 -9.241659 -30.964111 -9.483613 3.889743 -2.662372 2.065728 -2.568885 -1.473359 -117.566900 -67.622510 119.369106 9.527022 -9.698311 -12.024309 -20.890489 -35.376939 8.875000 48.793063 86.195639 44.556826 -1.502980 -21.051520 -0.018984 -0.727818 2.272335 -0.275554 -15.532331 -49.555623 11.785656 179.692756 80.514645 174.707929 -1.861834 -17.736685 3.319461 -0.116851 -0.567999 -0.044577
-161.570595 55.630702 107.413424 -173.153186 -27.810296 -10.760066 -0.409406 13.450096 6.048580 -0.518688 7.766137 2.103239 -0.632965 9.662589 2.584289 -0.500528 7.787557 2.117599 -9.954899 26.148205 -0.690701 -10.993723 3.393216 1.489339 2.878658 2.767641 -3.833876 -16.847291 -20.610517 0.830202 174.167673 -51.707491 -151.478159 13.731099 -9.181369 -30.831291 -9.473671 3.928694 -2.640221 2.059263 -2.556505 -1.491378 -117.715026 -67.609306 119.473017 9.515855 -9.713883 -11.945799 -20.881659 -35.404151 8.854688 49.194534 86.235433 44.956822 -1.515995 -21.077689 -0.041897 -0.722968 2.260128 -0.253281 -15.533081 -49.566895 11.739137 179.671694 80.502014 174.672849 -1.868537 -17.741261 3.331173 -0.116266 -0.563072 -0.044847
-161.575210 55.625848 107.402488 -173.117290 -27.803613 -10.749988 -0.409847 13.471580 6.056459 -0.524318 7.773657 2.110693 -0.641010 9.675543 2.595123 -0.519501 7.765803 2.102487 -9.952563 26.268982 -0.672723 -11.018108 3.511316 1.495039 2.864108 2.857492 -3.796372 -16.806617 -20.582818 0.855995 174.169314 -51.742819 -151.419949 13.736543 -9.115420 -30.686985 -9.465760 3.963204 -2.615059 2.046112 -2.547284 -1.500234 -117.868619 -67.612345 119.604811 9.521017 -9.710365 -11.877177 -20.880447 -35.425617 8.840430 49.555550 86.271060 45.309699 -1.528627 -21.106648 -0.039268 -0.723460 2.254693 -0.249865 -15.544882 -49.575820 11.706552 179.681560 80.490841 174.662751 -1.876687 -17.743344 3.345843 -0.111013 -0.560056 -0.045659
-161.580490 55.621242 107.393689 -173.032689 -27.783117 -10.758924 -0.475217 13.474794 6.042045 -0.511245 7.791192 2.130757 -0.617331 9.730013 2.643843 -0.556809 7.731718 2.076847 -9.968039 26.351150 -0.671297 -11.041142 3.621372 1.497610 2.836745 2.917038 -3.779826 -16.764420 -20.550069 0.871762 174.185321 -51.780015 -151.385788 13.741459 -9.056561 -30.553534 -9.471631 3.963255 -2.601305 2.035197 -2.550263 -1.502611 -118.007564 -67.630753 119.737018 9.534379 -9.715434 -11.823534 -20.919125 -35.446487 8.823842 49.903889 86.299790 45.645604 -1.549365 -21.142323 -0.026800 -0.732589 2.256808 -0.241212 -15.576733 -49.598145 11.674713 179.678538 80.483142 174.638107 -1.909579 -17.736641 3.377279 -0.104767 -0.557849 -0.041605
